<?xml version="1.0" standalone="no"?>
<!DOCTYPE svg PUBLIC "-//W3C//DTD SVG 20010904//EN"
 "http://www.w3.org/TR/2001/REC-SVG-20010904/DTD/svg10.dtd">
<svg version="1.0" xmlns="http://www.w3.org/2000/svg"
 width="500.000000pt" height="500.000000pt" viewBox="0 0 500.000000 500.000000"
 preserveAspectRatio="xMidYMid meet">

<g transform="translate(0.000000,500.000000) scale(0.100000,-0.100000)"
fill="#000000" stroke="none">
<path d="M2890 3674 c-241 -17 -428 -45 -564 -85 -61 -18 -76 -28 -140 -92
-39 -40 -100 -112 -135 -162 -83 -116 -80 -113 -92 -92 -13 23 -55 22 -72 -3
-15 -21 -13 -21 -562 -60 -170 -12 -302 -33 -344 -55 -64 -33 -130 -125 -131
-183 0 -12 -9 -40 -20 -62 -25 -48 -50 -151 -50 -205 0 -29 -5 -44 -20 -53
-27 -17 -25 -42 5 -72 14 -14 36 -41 48 -60 12 -19 42 -50 67 -68 25 -19 58
-58 73 -86 104 -191 338 -266 542 -172 58 26 117 82 136 128 l11 28 185 0
c185 0 471 21 595 44 l67 13 35 -72 c23 -46 53 -88 84 -116 67 -60 90 -78 95
-73 2 3 2 -7 -1 -21 -2 -14 -13 -30 -25 -36 -37 -20 -171 -38 -337 -45 -105
-5 -157 -10 -145 -16 15 -6 14 -7 -5 -2 -45 12 -216 16 -200 5 13 -9 13 -10 0
-15 -42 -13 -87 -12 -125 5 -92 42 -202 10 -242 -71 -13 -24 -24 -60 -24 -80
-1 -19 -3 -27 -6 -17 -2 9 -6 17 -7 17 -24 0 -157 -59 -168 -75 -4 -5 -8 45
-8 113 l0 122 -52 0 -53 0 3 -175 c3 -175 3 -175 -20 -185 -16 -6 -18 -9 -6
-9 9 -1 19 -9 22 -19 8 -23 33 -36 106 -55 121 -32 289 -39 1030 -40 767 -1
1191 11 1365 38 117 18 132 22 164 42 19 12 21 17 10 24 -10 6 -6 9 14 9 19 0
40 11 63 34 30 30 34 40 34 86 0 43 -5 56 -28 80 -16 15 -53 35 -82 44 -72 21
-100 41 -100 71 0 32 25 55 61 55 42 0 65 -14 99 -62 l30 -41 0 51 c0 42 -3
51 -17 51 -10 0 -43 3 -74 6 -94 12 -149 -31 -149 -116 0 -60 29 -90 112 -118
71 -24 98 -45 98 -76 0 -22 -28 -55 -47 -55 -6 0 -16 7 -24 16 -15 19 -60 43
-88 47 -11 2 -29 14 -40 28 -16 19 -20 20 -21 7 0 -11 -6 -15 -20 -11 -11 3
-20 10 -20 15 0 5 -5 6 -10 3 -6 -4 -22 1 -35 9 -22 15 -25 23 -25 83 l0 66
-23 -34 c-12 -19 -32 -35 -43 -37 -19 -3 -22 4 -28 59 -9 92 -8 99 17 109 15
6 -5 9 -68 8 -49 0 -82 -2 -72 -5 9 -2 17 -13 17 -24 0 -18 -5 -19 -52 -13
-40 6 -49 4 -43 -6 4 -7 -5 -3 -21 9 -16 11 -56 26 -89 32 -85 15 -140 35
-143 51 -4 18 34 58 77 81 28 14 31 20 21 32 -7 8 -21 15 -32 15 -16 0 -14 6
16 45 19 25 43 66 53 90 13 34 22 43 33 38 23 -12 128 -5 211 12 41 9 116 19
167 22 86 6 94 4 113 -16 49 -52 165 -86 239 -70 68 15 104 43 138 106 44 84
56 157 56 333 0 177 -4 193 -80 292 -37 47 -60 67 -105 87 -50 22 -67 38 -125
116 -90 121 -184 228 -246 280 -77 67 -197 122 -303 140 -88 15 -395 27 -505
19z m470 -33 c200 -25 346 -127 532 -376 l90 -120 -63 -6 c-81 -7 -98 -1 -57
20 22 11 34 24 36 41 3 30 -39 98 -97 155 -39 37 -41 38 -41 15 0 -23 18 -116
35 -182 4 -17 3 -28 -3 -28 -10 0 -42 126 -57 222 -4 24 -17 49 -38 68 -39 37
-180 110 -213 110 -38 0 -47 -33 -52 -186 -4 -139 -4 -142 19 -163 13 -12 38
-36 56 -53 38 -38 82 -42 117 -9 21 20 31 22 68 16 125 -19 183 -52 208 -120
9 -24 9 -28 -1 -17 -7 6 -20 12 -29 12 -14 -1 -67 -38 -59 -43 2 -1 16 -12 30
-25 28 -24 58 -21 60 7 1 9 4 3 8 -14 7 -35 -5 -186 -16 -196 -5 -3 -101 -9
-214 -12 l-206 -6 -7 142 c-9 205 -15 243 -43 283 -22 33 -23 40 -13 92 5 31
10 105 10 164 0 183 -14 194 -255 201 -182 5 -341 -4 -565 -33 -278 -36 -305
-45 -385 -131 -67 -71 -179 -219 -171 -226 3 -3 108 -1 233 6 427 21 649 24
803 10 80 -7 174 -13 210 -13 88 -1 91 6 88 191 -2 95 0 139 7 132 6 -6 10
-75 10 -164 0 -204 12 -193 -183 -171 -173 19 -664 23 -872 6 -69 -5 -173 -10
-232 -10 l-108 0 52 73 c69 97 159 198 205 230 62 42 262 86 518 113 137 14
445 11 585 -5z m-544 -81 c37 0 51 -17 39 -47 -6 -16 -8 -15 -16 5 -8 21 -36
29 -93 23 -16 -1 -15 1 5 18 13 11 26 15 27 10 2 -5 19 -9 38 -9z m794 -69
c96 -57 105 -71 124 -181 9 -52 19 -106 22 -119 7 -23 6 -23 -37 -16 -24 4
-49 10 -56 14 -12 6 -13 9 -13 41 0 37 -37 62 -85 58 l-44 -3 -11 85 c-7 47
-16 105 -20 129 l-8 43 31 -6 c17 -4 61 -24 97 -45z m-119 -116 c10 -75 10
-99 -1 -124 -7 -18 -18 -30 -24 -28 -13 4 -20 168 -10 247 6 50 8 52 15 26 4
-15 13 -70 20 -121z m-1014 70 c107 -34 108 -35 89 -74 -9 -17 -20 -31 -24
-31 -35 -1 -229 -32 -272 -44 -30 -8 -57 -13 -59 -11 -1 2 21 44 50 94 l54 91
42 0 c23 0 77 -11 120 -25z m-241 -57 c-15 -24 -36 -62 -48 -85 -20 -40 -25
-43 -61 -43 l-40 0 84 85 c45 47 85 85 87 85 2 0 -8 -19 -22 -42z m1126 -30
c-2 -35 -6 -65 -8 -67 -2 -2 -22 1 -44 8 -66 19 -200 25 -273 11 -62 -11 -68
-11 -96 10 -17 12 -31 25 -31 30 0 20 261 66 396 69 l60 1 -4 -62z m-698 -3
c19 -14 18 -15 -12 -15 -30 0 -40 9 -25 23 9 10 15 8 37 -8z m1207 -117 c17
-34 17 -38 3 -53 -9 -9 -26 -15 -38 -13 -17 2 -24 16 -38 73 -26 108 -23 117
18 70 20 -22 44 -57 55 -77z m-1347 57 c-5 -11 -22 -15 -64 -15 -31 0 -79 -3
-106 -6 -80 -11 -44 5 47 20 115 19 130 19 123 1z m204 6 c9 -5 -6 -10 -40
-14 -87 -11 -108 -9 -102 8 5 11 22 15 68 15 33 0 67 -4 74 -9z m370 -18 c-10
-2 -26 -2 -35 0 -10 3 -2 5 17 5 19 0 27 -2 18 -5z m169 -4 c35 -6 62 -13 59
-16 -8 -8 -186 9 -186 18 0 12 51 11 127 -2z m301 -33 c5 -22 -13 -36 -45 -36
-25 0 -28 11 -12 41 13 25 52 22 57 -5z m-529 -16 l124 -9 38 -40 c20 -23 42
-41 50 -41 17 0 49 30 49 45 0 20 78 24 95 5 34 -38 43 -86 49 -263 l6 -177
-40 0 c-35 0 -40 -3 -41 -22 0 -13 -8 5 -16 40 -19 83 -28 73 -14 -17 6 -38
11 -100 12 -138 1 -49 3 -61 9 -43 4 14 8 40 9 58 1 31 3 32 41 32 l40 0 0
-59 c0 -40 5 -62 15 -71 29 -24 331 9 384 42 12 7 29 32 37 55 16 40 19 43 55
43 38 0 39 1 40 38 1 20 4 28 6 18 7 -26 -16 -134 -33 -162 -20 -30 -68 -40
-324 -64 -118 -12 -219 -23 -225 -25 -14 -7 216 4 365 16 149 13 185 27 212
83 l19 41 -7 -45 c-11 -79 -22 -93 -99 -118 -38 -13 -119 -30 -180 -38 -60 -8
-151 -21 -201 -30 -50 -8 -110 -14 -135 -12 l-44 3 -7 145 c-14 314 -42 428
-122 498 -65 57 -157 61 -229 10 -53 -38 -154 -219 -169 -303 -3 -18 -15 -21
-101 -29 -99 -9 -120 -5 -99 16 16 16 15 53 -2 67 -12 10 -190 14 -521 11
l-60 -1 -42 -59 c-24 -33 -43 -65 -43 -70 0 -12 32 -12 485 4 198 7 362 11
364 9 2 -1 2 -5 0 -7 -10 -9 -443 -37 -744 -47 -316 -11 -1196 -6 -1230 7 -8
4 -15 11 -15 16 0 7 30 8 89 4 l89 -7 46 66 c25 36 46 68 46 70 0 3 -56 5
-125 5 -69 0 -125 1 -125 3 0 2 7 25 16 51 l16 47 28 -33 c25 -30 33 -33 79
-32 41 0 58 6 88 31 91 73 124 186 75 253 -13 17 -22 34 -19 36 10 10 457 45
554 44 17 -1 -11 -14 -73 -34 -229 -77 -472 -233 -462 -298 4 -27 44 -36 173
-37 114 -2 565 18 662 29 90 10 149 35 266 114 38 25 70 46 73 46 2 0 4 -10 4
-22 1 -41 38 -107 72 -128 121 -74 288 55 288 224 0 53 -3 61 -33 90 -18 17
-41 36 -52 42 -18 10 -15 13 25 22 57 13 279 14 439 2z m-542 -11 c-81 -19
-146 -73 -179 -146 -22 -49 -114 -120 -234 -179 l-71 -36 -314 -15 c-289 -13
-542 -14 -555 0 -22 21 98 122 234 195 187 102 465 171 697 173 72 1 180 5
240 9 61 3 135 7 165 7 53 1 54 1 17 -8z m761 -9 c15 0 22 -6 22 -20 0 -41
-57 -33 -81 12 -10 19 -9 20 12 15 13 -4 34 -7 47 -7z m-677 -27 c5 -5 -5 -7
-24 -5 -19 2 -51 -1 -73 -7 l-39 -10 25 20 c19 16 34 20 64 16 21 -3 42 -9 47
-14z m-10 -52 c50 -51 35 -141 -36 -216 -38 -41 -75 -52 -116 -34 -69 28 -89
119 -43 196 49 85 139 110 195 54z m1468 -22 c42 -12 111 -66 111 -85 0 -6
-13 -14 -28 -20 -34 -13 -56 -55 -78 -151 -9 -37 -20 -77 -25 -88 -6 -17 -8
-15 -9 10 -1 17 -5 39 -10 50 -7 16 -9 12 -9 -20 -1 -39 -2 -40 -35 -40 l-35
0 6 111 c7 131 1 173 -32 212 -13 16 -21 33 -17 37 10 10 107 0 161 -16z
m-2935 -11 c7 -13 16 -36 20 -53 6 -29 5 -29 -14 6 -12 24 -33 42 -57 52 l-38
16 37 0 c28 1 41 -4 52 -21z m-27 -34 c14 -23 15 -32 4 -72 -20 -75 -84 -142
-136 -142 -27 0 -55 38 -55 75 0 112 137 214 187 139z m2093 -46 c18 -13 44
-39 58 -58 l25 -35 -29 33 c-43 48 -84 72 -127 72 -111 0 -180 -86 -252 -312
-64 -203 -143 -269 -380 -319 -220 -46 -708 -67 -1096 -48 -301 15 -429 47
-511 129 -87 86 -129 80 566 80 623 0 889 9 1199 38 l172 17 35 105 c57 168
130 284 194 310 42 17 111 11 146 -12z m1002 -29 c38 -20 60 -93 63 -208 l4
-106 -8 100 c-5 60 -15 114 -25 133 -20 40 -59 66 -87 59 -20 -5 -20 -5 -3 14
20 22 28 23 56 8z m-1793 -103 c11 -11 38 -22 59 -26 34 -7 35 -8 7 -9 -16 0
-41 5 -55 12 -25 13 -70 71 -70 91 0 6 8 -2 19 -19 10 -16 28 -39 40 -49z
m779 -16 c78 -56 122 -170 122 -314 0 -85 -21 -188 -50 -246 -23 -44 -81 -105
-122 -126 -36 -19 -163 -32 -138 -15 8 6 24 11 36 11 48 0 119 35 160 77 131
135 122 456 -17 595 -55 55 -51 62 9 18z m-80 -14 c74 -39 133 -141 151 -264
26 -172 -46 -341 -157 -372 -49 -13 -71 -8 -125 28 -47 31 -43 38 8 12 48 -25
78 -25 131 -1 50 23 81 64 105 143 52 166 -18 386 -146 456 -30 17 2 14 33 -2z
m1087 -52 c15 -30 20 -63 21 -139 l2 -100 -7 102 c-6 79 -12 109 -27 130 -34
47 -38 56 -23 51 8 -2 23 -22 34 -44z m-1895 -36 c0 -4 -5 -10 -11 -14 -6 -3
-17 -22 -25 -40 -14 -34 -15 -34 -79 -34 -36 0 -65 3 -65 6 0 3 14 26 31 50
l31 45 59 -3 c32 -1 59 -6 59 -10z m308 7 c27 -7 29 -34 3 -63 -16 -20 -27
-22 -102 -20 l-84 2 80 3 c84 4 105 13 105 46 0 19 -4 20 -127 13 -111 -6
-130 -9 -150 -28 -29 -27 -29 -35 0 -41 16 -3 13 -5 -10 -6 -18 0 -33 2 -33 5
0 3 12 23 28 44 21 31 35 40 62 42 70 6 206 8 228 3z m-1578 -11 c0 -2 -13
-22 -29 -45 -17 -22 -31 -45 -33 -51 -2 -6 -13 -8 -25 -4 -19 6 -21 11 -13 31
5 14 7 32 3 41 -3 9 -1 19 5 23 12 7 92 12 92 5z m-112 -35 c4 -34 -28 -62
-65 -56 -27 4 -27 4 4 6 26 1 34 6 39 28 5 19 2 30 -12 40 -18 14 -18 14 6 11
18 -2 26 -10 28 -29z m-38 -8 c0 -19 -23 -35 -34 -24 -14 15 -5 43 14 43 13 0
20 -7 20 -19z m1550 4 c-7 -9 -29 -15 -54 -15 -38 1 -40 2 -22 15 11 8 35 15
54 15 30 0 33 -2 22 -15z m155 5 c-3 -5 -24 -10 -46 -10 -21 0 -39 5 -39 10 0
6 21 10 46 10 27 0 43 -4 39 -10z m1316 -87 c-16 -59 -79 -79 -310 -98 -86 -7
-91 -4 -91 67 l0 48 198 3 c108 1 200 3 204 5 3 1 3 -10 -1 -25z m304 -126
c-12 -42 -48 -117 -58 -117 -5 0 -6 8 -2 18 22 53 45 124 45 139 1 17 1 17 11
0 6 -9 7 -27 4 -40z m-2346 -547 c9 -13 11 -21 5 -17 -7 4 -37 -2 -69 -12
l-57 -19 7 27 c10 41 25 52 63 49 24 -2 40 -11 51 -28z m314 23 c-7 -2 -19 -2
-25 0 -7 3 -2 5 12 5 14 0 19 -2 13 -5z m1114 1 c-3 -3 -12 -4 -19 -1 -8 3 -5
6 6 6 11 1 17 -2 13 -5z m54 -21 c13 -17 13 -17 -6 -3 -11 8 -22 16 -24 17 -2
2 0 3 6 3 6 0 17 -8 24 -17z"/>
<path d="M3170 3082 c14 -9 40 -32 59 -52 l33 -35 -16 33 c-9 18 -31 42 -49
52 -39 24 -62 26 -27 2z"/>
<path d="M1603 2938 c-18 -23 -23 -48 -10 -48 12 0 67 46 67 55 0 11 -48 4
-57 -7z"/>
<path d="M858 2524 c31 -58 104 -95 247 -125 103 -22 131 -24 465 -24 195 0
367 3 383 8 30 8 36 37 16 80 -21 47 -30 48 -464 45 -403 -3 -410 -3 -408 -23
1 -11 4 -30 8 -43 7 -21 5 -23 -21 -16 -16 4 -49 29 -74 56 -42 46 -49 50
-104 55 -55 6 -58 5 -48 -13z m128 -41 c12 -15 21 -30 19 -31 -8 -8 -72 20
-100 44 l-30 25 44 -5 c33 -3 50 -12 67 -33z m723 -63 c186 0 252 -3 244 -11
-16 -16 -478 -24 -637 -11 -72 6 -134 16 -140 23 -8 9 23 10 134 5 80 -3 260
-6 399 -6z"/>
<path d="M2083 2521 l-62 -6 32 -43 32 -43 74 5 c89 7 124 25 119 64 -3 26 -5
27 -68 28 -36 1 -93 -2 -127 -5z m177 -25 c0 -24 -26 -36 -94 -43 -58 -5 -68
-4 -81 13 -22 29 -19 33 38 37 120 8 137 7 137 -7z"/>
<path d="M1000 1988 c-61 -31 -90 -88 -90 -176 0 -82 26 -134 80 -162 21 -11
51 -20 66 -20 l27 0 -26 20 c-42 33 -60 166 -36 270 13 58 34 80 76 80 36 0
72 -30 100 -83 8 -16 17 -27 19 -24 10 9 -8 104 -20 105 -6 0 -42 4 -81 7 -61
6 -76 4 -115 -17z"/>
<path d="M3660 2003 c0 -5 13 -14 29 -20 18 -6 37 -26 50 -49 l20 -39 1 53 0
52 -34 0 c-19 0 -41 3 -50 6 -9 3 -16 2 -16 -3z"/>
<path d="M1119 1783 c22 -4 23 -8 19 -70 -3 -42 -9 -68 -19 -74 -12 -7 -12 -9
1 -9 8 0 29 4 46 9 18 5 37 5 47 -1 15 -8 17 -1 17 66 0 50 4 76 13 79 6 3
-24 5 -68 5 -44 0 -69 -3 -56 -5z"/>
</g>
</svg>
